<?xml version="1.0" encoding="UTF-8"?>
<svg xmlns="http://www.w3.org/2000/svg" xmlns:xlink="http://www.w3.org/1999/xlink" width="566.93pt" height="567.14pt" viewBox="0 0 566.93 567.14" version="1.1">
<defs>
<clipPath id="clip1">
  <path d="M 0 0 L 566.929688 0 L 566.929688 567.140625 L 0 567.140625 Z M 0 0 "/>
</clipPath>
</defs>
<g id="surface1">
<g clip-path="url(#clip1)" clip-rule="nonzero">
<path style=" stroke:none;fill-rule:nonzero;fill:rgb(63.499451%,13.299561%,29.798889%);fill-opacity:1;" d="M 566.929688 567.140625 L 0 567.140625 L 0 0.210938 L 566.929688 0.210938 L 566.929688 567.140625 "/>
</g>
<path style=" stroke:none;fill-rule:evenodd;fill:rgb(0%,32.499695%,62.69989%);fill-opacity:1;" d="M 0 0 L 283.464844 0 L 283.464844 566.929688 L 0 566.929688 L 0 0 "/>
<path style=" stroke:none;fill-rule:evenodd;fill:rgb(0%,0%,0%);fill-opacity:1;" d="M 355.621094 29.703125 C 331.84375 46.210938 308.910156 53.902344 283.46875 53.902344 C 258.023438 53.902344 235.09375 46.210938 211.308594 29.703125 L 205.113281 25.398438 L 198.828125 29.566406 C 171.945313 47.363281 150.105469 50.621094 116.777344 50.621094 C 105.285156 50.621094 92.933594 48.453125 81.050781 44.347656 L 73.136719 41.617188 L 68.324219 48.464844 C 65.761719 52.109375 63.855469 54.421875 62.019531 56.660156 C 59.753906 59.414063 57.609375 62.015625 55.097656 66.058594 L 51.070313 72.53125 L 55.652344 78.621094 C 76.023438 105.6875 83.707031 133.535156 83.707031 159.746094 C 83.707031 208.628906 56.980469 251.824219 35.929688 273.667969 L 28.347656 281.535156 L 36.085938 289.253906 C 40.234375 293.398438 47.625 301.066406 53.738281 307.492188 C 53.71875 307.742188 53.492188 310.859375 53.492188 310.859375 L 53.4375 311.472656 C 53.183594 316.222656 53.058594 320.898438 53.058594 325.5 C 53.058594 375.140625 67.730469 416.410156 96.769531 448.332031 C 130.386719 485.292969 182.953125 507.355469 245.078125 510.792969 C 260.503906 524.84375 276.183594 536.503906 276.882813 537.023438 L 283.523438 541.953125 L 290.15625 537.007813 C 290.855469 536.484375 306.445313 524.832031 321.855469 510.792969 C 383.980469 507.355469 436.546875 485.292969 470.164063 448.332031 C 499.199219 416.410156 513.871094 375.140625 513.871094 325.503906 C 513.871094 320.898438 513.746094 316.222656 513.492188 311.472656 L 513.488281 311.363281 L 513.429688 310.753906 C 513.429688 310.753906 513.210938 307.738281 513.195313 307.492188 C 518.855469 301.542969 526.484375 293.609375 530.847656 289.253906 L 538.582031 281.535156 L 531 273.667969 C 509.953125 251.824219 483.222656 208.625 483.222656 159.742188 C 483.222656 133.53125 490.910156 105.6875 511.277344 78.621094 L 515.859375 72.535156 L 511.839844 66.0625 C 509.320313 62.019531 507.179688 59.414063 504.910156 56.65625 C 503.074219 54.421875 501.175781 52.109375 498.613281 48.46875 L 493.796875 41.613281 L 485.882813 44.347656 C 474 48.453125 461.648438 50.621094 450.160156 50.621094 C 416.828125 50.621094 394.988281 47.363281 368.105469 29.566406 L 361.816406 25.398438 L 355.621094 29.703125 "/>
<path style=" stroke:none;fill-rule:evenodd;fill:rgb(87.098694%,70.599365%,2.69928%);fill-opacity:1;" d="M 283.511719 528.089844 C 283.511719 528.089844 265.753906 514.921875 249.710938 499.929688 C 144.757813 495.582031 57.910156 436.726563 64.542969 312.0625 C 64.9375 308.773438 64.605469 309 65.171875 303.386719 C 59.15625 297.019531 49.199219 286.632813 43.941406 281.382813 C 81.589844 242.320313 125.515625 152.960938 64.542969 71.933594 C 68.550781 65.488281 71.453125 63.351563 77.421875 54.863281 C 89.605469 59.070313 103.160156 61.746094 116.777344 61.746094 C 151.742188 61.746094 175.617188 58.273438 204.96875 38.839844 C 228.171875 54.945313 253.335938 65.023438 283.46875 65.023438 C 313.601563 65.023438 338.761719 54.945313 361.964844 38.839844 C 391.3125 58.273438 415.191406 61.746094 450.160156 61.746094 C 463.769531 61.746094 477.324219 59.070313 489.511719 54.863281 C 495.480469 63.351563 498.382813 65.488281 502.390625 71.933594 C 441.417969 152.960938 485.351563 242.320313 522.992188 281.382813 C 517.734375 286.632813 507.773438 297.019531 501.757813 303.386719 C 502.320313 309 501.992188 308.773438 502.386719 312.0625 C 509.019531 436.726563 422.171875 495.582031 317.226563 499.929688 C 301.179688 514.921875 283.511719 528.089844 283.511719 528.089844 "/>
<path style=" stroke:none;fill-rule:evenodd;fill:rgb(0%,0%,0%);fill-opacity:1;" d="M 84.453125 304.628906 L 82.972656 304.628906 L 82.339844 309.992188 L 81.886719 313.445313 C 79.4375 361.464844 91.410156 400.261719 117.464844 428.839844 C 147.351563 461.617188 195.765625 480.296875 257.480469 482.851563 C 257.542969 482.851563 258.519531 482.859375 258.519531 482.859375 C 277.035156 482.960938 294.527344 483.058594 309.402344 482.851563 C 371.164063 480.296875 419.582031 461.617188 449.464844 428.839844 C 475.523438 400.257813 487.492188 361.46875 485.050781 313.535156 C 485.046875 313.445313 484.589844 309.976563 484.589844 309.976563 L 483.964844 304.691406 L 482.472656 304.628906 L 84.453125 304.628906 "/>
<path style=" stroke:none;fill-rule:evenodd;fill:rgb(0%,0%,0%);fill-opacity:1;" d="M 361.238281 267.800781 C 364.359375 265.585938 366.191406 262.113281 366.191406 258.050781 C 366.191406 249.363281 360.007813 244.175781 349.648438 244.175781 L 325.972656 244.175781 L 325.972656 295.710938 L 349.429688 295.710938 C 361.007813 295.710938 367.917969 289.421875 367.917969 278.882813 C 367.917969 273.949219 365.453125 269.996094 361.238281 267.800781 Z M 336.921875 254.554688 C 337.90625 254.554688 349.214844 254.554688 349.214844 254.554688 C 354.230469 254.554688 354.875 256.847656 354.875 258.84375 C 354.875 261.683594 353.191406 263.066406 349.722656 263.066406 C 349.722656 263.0625 337.914063 263.066406 336.921875 263.066406 C 336.921875 262.164063 336.921875 255.457031 336.921875 254.554688 Z M 256.980469 269.945313 C 256.980469 286.082031 265.851563 296.507813 279.578125 296.507813 C 288.523438 296.507813 294.972656 292.574219 298.730469 284.816406 L 298.945313 284.371094 L 289.554688 278.796875 L 289.277344 279.257813 C 286.601563 283.742188 284.046875 285.410156 279.863281 285.410156 C 273.027344 285.410156 268.4375 279.195313 268.4375 269.945313 C 268.4375 260.40625 272.785156 254.480469 279.792969 254.480469 C 283.863281 254.480469 286.726563 256.179688 288.539063 259.671875 L 288.777344 260.125 L 299.117188 255.355469 L 298.878906 254.859375 C 295.246094 247.351563 288.695313 243.382813 279.933594 243.382813 C 266.421875 243.382813 256.980469 254.304688 256.980469 269.945313 Z M 235.664063 244.175781 L 199.015625 244.175781 L 199.015625 295.710938 L 210.179688 295.710938 C 210.179688 295.710938 210.179688 275.472656 210.179688 274.449219 C 211.183594 274.449219 225.390625 274.449219 225.390625 274.449219 L 225.390625 263.566406 C 225.390625 263.566406 211.183594 263.566406 210.179688 263.566406 C 210.179688 262.667969 210.179688 256.027344 210.179688 255.128906 C 211.214844 255.128906 236.203125 255.128906 236.203125 255.128906 L 236.203125 244.175781 Z M 349.792969 285.050781 C 349.792969 285.050781 337.914063 285.050781 336.921875 285.050781 C 336.921875 284.101563 336.921875 274.023438 336.921875 273.078125 C 337.914063 273.078125 349.792969 273.078125 349.792969 273.078125 C 354.34375 273.078125 356.460938 274.96875 356.460938 279.027344 C 356.460938 282.964844 354.15625 285.050781 349.792969 285.050781 "/>
<path style=" stroke:none;fill-rule:evenodd;fill:rgb(0%,0%,0%);fill-opacity:1;" d="M 361.390625 59.933594 C 336.421875 75.039063 310.929688 82.394531 283.460938 82.414063 C 256 82.394531 230.511719 75.039063 205.539063 59.933594 L 204.707031 59.433594 L 203.859375 59.910156 C 175.414063 75.984375 150.386719 79.128906 116.769531 79.128906 C 108.691406 79.128906 100.359375 78.316406 91.996094 76.71875 L 88.394531 76.027344 L 90.246094 79.195313 C 124.78125 138.292969 112.519531 195.433594 96.15625 232.960938 L 95.136719 235.296875 L 471.796875 235.296875 L 470.773438 232.960938 C 454.410156 195.433594 442.148438 138.292969 476.679688 79.195313 L 478.535156 76.027344 L 474.929688 76.71875 C 466.570313 78.316406 458.234375 79.128906 450.160156 79.128906 C 416.539063 79.128906 391.515625 75.984375 363.070313 59.910156 L 362.226563 59.433594 L 361.390625 59.933594 "/>
<path style=" stroke:none;fill-rule:evenodd;fill:rgb(100%,100%,100%);fill-opacity:1;" d="M 281.800781 85.714844 C 261.855469 85.488281 242.925781 81.441406 224.476563 73.453125 C 217.8125 70.570313 211.207031 67.179688 204.640625 63.253906 C 192.089844 70.253906 180.1875 74.800781 167.941406 77.707031 C 167.941406 80.671875 121.117188 82.464844 116.769531 82.464844 C 109.566406 82.460938 102.160156 81.71875 94.722656 80.476563 C 103.546875 96.253906 109.164063 111.867188 112.347656 127 C 114.671875 138.070313 115.707031 148.886719 115.707031 159.308594 C 115.707031 167.660156 115.054688 175.753906 113.925781 183.539063 C 113.925781 194.167969 104.613281 221.457031 100.171875 231.960938 C 160.714844 231.960938 221.257813 231.960938 281.800781 231.960938 L 281.800781 85.714844 "/>
<path style=" stroke:none;fill-rule:evenodd;fill:rgb(100%,87.5%,10.598755%);fill-opacity:1;" d="M 285.132813 85.714844 C 305.078125 85.488281 324.003906 81.441406 342.453125 73.453125 C 349.117188 70.570313 355.722656 67.179688 362.289063 63.253906 C 374.839844 70.253906 386.742188 74.800781 398.988281 77.707031 C 398.988281 80.671875 445.8125 82.464844 450.160156 82.464844 C 457.359375 82.460938 464.769531 81.71875 472.207031 80.476563 C 463.382813 96.253906 457.765625 111.867188 454.585938 127 C 452.257813 138.070313 451.222656 148.886719 451.222656 159.308594 C 451.222656 167.660156 451.878906 175.753906 453.007813 183.539063 C 453.007813 194.167969 462.316406 221.457031 466.757813 231.960938 C 406.214844 231.960938 345.671875 231.960938 285.132813 231.960938 L 285.132813 85.714844 "/>
<path style=" stroke:none;fill-rule:evenodd;fill:rgb(87.799072%,22.698975%,24.299622%);fill-opacity:1;" d="M 224.476563 127 C 224.476563 126.238281 224.476563 96.023438 224.476563 73.453125 C 217.8125 70.570313 211.207031 67.179688 204.640625 63.253906 C 192.089844 70.253906 180.1875 74.800781 167.941406 77.707031 C 167.941406 99.636719 167.941406 126.285156 167.941406 127 C 167.085938 127 132.800781 127 112.347656 127 C 114.671875 138.070313 115.707031 148.886719 115.707031 159.308594 C 115.707031 167.660156 115.054688 175.753906 113.925781 183.542969 C 134.515625 183.539063 167.105469 183.542969 167.941406 183.542969 C 167.941406 184.289063 167.941406 211.238281 167.941406 231.960938 C 184.9375 231.960938 204.167969 231.960938 224.476563 231.960938 C 224.476563 211.238281 224.476563 184.289063 224.476563 183.542969 C 225.046875 183.539063 252.441406 183.542969 281.800781 183.542969 L 281.800781 127 C 252.441406 127 225.046875 127 224.476563 127 "/>
<path style=" stroke:none;fill-rule:evenodd;fill:rgb(87.799072%,22.698975%,24.299622%);fill-opacity:1;" d="M 382.082031 72.503906 L 382.082031 231.960938 C 388.996094 231.960938 395.644531 231.960938 401.953125 231.960938 L 401.953125 78.355469 C 395.261719 76.914063 388.683594 75.007813 382.082031 72.507813 Z M 342.332031 73.503906 L 342.332031 231.960938 C 349.085938 231.960938 355.726563 231.960938 362.207031 231.960938 L 362.207031 63.300781 C 355.628906 67.230469 349.007813 70.621094 342.332031 73.503906 Z M 302.582031 84.488281 L 302.582031 231.960938 C 309.253906 231.960938 315.890625 231.960938 322.453125 231.960938 L 322.453125 80.503906 C 315.917969 82.300781 309.300781 83.628906 302.582031 84.488281 Z M 421.832031 81.34375 L 421.832031 231.960938 C 429.222656 231.960938 435.898438 231.960938 441.707031 231.960938 L 441.707031 82.375 C 434.78125 82.246094 428.191406 81.933594 421.832031 81.34375 "/>
<path style=" stroke:none;fill-rule:evenodd;fill:rgb(0%,32.499695%,62.69989%);fill-opacity:1;" d="M 85.933594 307.960938 C 85.796875 309.15625 85.632813 310.507813 85.632813 310.507813 C 85.632813 310.503906 85.214844 313.703125 85.207031 313.703125 C 85.003906 317.707031 84.902344 321.644531 84.902344 325.515625 C 84.902344 367.109375 96.660156 401.070313 119.929688 426.59375 C 125.488281 432.691406 131.71875 438.289063 138.566406 443.378906 C 154.605469 455.300781 174.078125 464.402344 196.527344 470.535156 C 214.097656 475.332031 233.488281 478.304688 254.484375 479.367188 C 255.507813 479.421875 256.527344 479.480469 257.5625 479.519531 L 258.535156 479.527344 C 277.035156 479.625 294.511719 479.71875 309.3125 479.519531 C 310.363281 479.476563 311.402344 479.421875 312.445313 479.367188 C 333.445313 478.300781 352.835938 475.328125 370.40625 470.53125 C 392.855469 464.398438 412.332031 455.296875 428.363281 443.378906 C 435.21875 438.289063 441.441406 432.695313 447.003906 426.59375 C 470.273438 401.066406 482.03125 367.097656 482.03125 325.558594 C 482.03125 321.699219 481.933594 317.777344 481.730469 313.792969 L 481.296875 310.488281 C 481.296875 310.488281 481.136719 309.148438 480.996094 307.960938 C 349.308594 307.960938 217.621094 307.960938 85.933594 307.960938 "/>
<path style=" stroke:none;fill-rule:evenodd;fill:rgb(63.499451%,13.299561%,29.798889%);fill-opacity:1;" d="M 254.484375 479.367188 C 255.507813 479.421875 256.527344 479.480469 257.5625 479.519531 L 258.535156 479.527344 C 277.035156 479.625 294.511719 479.71875 309.3125 479.519531 C 310.363281 479.476563 311.402344 479.421875 312.445313 479.367188 L 312.445313 307.960938 C 293.246094 307.960938 273.683594 307.960938 254.484375 307.960938 Z M 196.527344 307.960938 C 175.039063 307.960938 155.265625 307.960938 138.566406 307.960938 L 138.566406 443.378906 C 154.605469 455.300781 174.078125 464.402344 196.527344 470.535156 Z M 370.40625 307.960938 L 370.40625 470.53125 C 392.855469 464.398438 412.332031 455.296875 428.363281 443.378906 L 428.363281 307.960938 C 411.664063 307.960938 391.890625 307.960938 370.40625 307.960938 "/>
<path style=" stroke:none;fill-rule:evenodd;fill:rgb(0%,0%,0%);fill-opacity:1;" d="M 283.417969 446.929688 C 314.019531 446.929688 338.976563 421.972656 338.976563 391.371094 C 338.976563 360.769531 314.019531 335.8125 283.417969 335.8125 C 252.820313 335.8125 227.859375 360.769531 227.859375 391.371094 C 227.859375 421.972656 252.820313 446.929688 283.417969 446.929688 "/>
<path style=" stroke:none;fill-rule:evenodd;fill:rgb(87.098694%,70.599365%,2.69928%);fill-opacity:1;" d="M 255.109375 401.449219 L 255.109375 401.453125 C 251.667969 407.621094 245.328125 411.210938 237.5625 411.210938 C 236.640625 411.210938 235.730469 411.144531 234.839844 411.027344 C 232.382813 404.957031 231.03125 398.324219 231.03125 391.371094 C 231.03125 374.945313 238.578125 360.285156 250.398438 350.675781 C 249.425781 354.523438 248.480469 357.890625 247.730469 361.332031 C 245.03125 373.691406 245.058594 392.296875 255.109375 401.449219 Z M 281.863281 392.148438 C 281.207031 398.300781 273.019531 404.328125 267.347656 403.605469 C 255.191406 402.046875 249.453125 390.761719 249.261719 376.902344 C 249.109375 366.621094 252.027344 357.625 254.316406 347.777344 C 261.460938 342.988281 269.84375 339.914063 278.882813 339.132813 C 272.832031 345.738281 274.082031 355.40625 280.324219 360.390625 C 278.859375 361.472656 277.539063 362.878906 276.40625 364.675781 C 271.785156 371.996094 271.128906 384.320313 281.863281 392.148438 Z M 283.328125 358.695313 C 276.773438 354.613281 275.644531 344.367188 283.917969 338.9375 C 311.605469 339.171875 334.179688 360.863281 335.808594 388.199219 C 330.859375 378.730469 321.828125 369.71875 313.183594 364.882813 C 304.023438 359.769531 292.003906 355.097656 283.328125 358.695313 Z M 335.683594 396.191406 C 335.171875 401.828125 333.761719 407.210938 331.605469 412.191406 C 328.046875 401.082031 316.476563 399.46875 309.359375 401.96875 C 309.277344 400.042969 308.828125 398.015625 307.9375 395.878906 C 305.152344 389.21875 295.519531 381.117188 283.460938 389.449219 C 274.589844 382.777344 275.132813 372.542969 279.046875 366.347656 C 285.136719 356.691406 298.992188 360.535156 311.660156 367.613281 C 321.933594 373.351563 332.691406 385.34375 335.683594 396.191406 Z M 309.09375 405.464844 C 315.523438 402.242188 327.820313 403.761719 329.386719 416.695313 C 320.457031 432.859375 303.242188 443.804688 283.464844 443.804688 C 272.632813 443.804688 262.5625 440.515625 254.203125 434.890625 C 265.277344 434.375 279.996094 431.5625 289.121094 426.117188 C 297.976563 420.835938 307.375 414.253906 309.09375 405.464844 Z M 250.136719 431.847656 C 261.074219 431.9375 277.886719 429.183594 287.523438 423.4375 C 299.980469 416.007813 309.65625 408.078125 305.058594 397.082031 C 302.734375 391.523438 295.011719 385.097656 284.992188 392.1875 C 284.355469 400.394531 274.226563 407.636719 266.949219 406.703125 C 263.265625 406.226563 260.175781 405.066406 257.605469 403.382813 C 253.515625 410.367188 246.195313 414.332031 237.5625 414.332031 C 237.136719 414.332031 236.714844 414.320313 236.292969 414.292969 C 239.609375 421.105469 244.351563 427.082031 250.136719 431.851563 L 250.136719 431.847656 "/>
</g>
</svg>
